<svg width="14" height="15" viewBox="0 0 14 15" fill="none" xmlns="http://www.w3.org/2000/svg">
<path d="M4.07695 2.52188L3.79258 3.375H1.75C0.784766 3.375 0 4.15977 0 5.125V12.125C0 13.0902 0.784766 13.875 1.75 13.875H12.25C13.2152 13.875 14 13.0902 14 12.125V5.125C14 4.15977 13.2152 3.375 12.25 3.375H10.2074L9.92305 2.52188C9.74531 1.98594 9.24492 1.625 8.67891 1.625H5.32109C4.75508 1.625 4.25469 1.98594 4.07695 2.52188ZM7 6C7.69619 6 8.36387 6.27656 8.85616 6.76884C9.34844 7.26113 9.625 7.92881 9.625 8.625C9.625 9.32119 9.34844 9.98887 8.85616 10.4812C8.36387 10.9734 7.69619 11.25 7 11.25C6.30381 11.25 5.63613 10.9734 5.14384 10.4812C4.65156 9.98887 4.375 9.32119 4.375 8.625C4.375 7.92881 4.65156 7.26113 5.14384 6.76884C5.63613 6.27656 6.30381 6 7 6Z" fill="#1E40AF"/>
</svg>
