<svg width="22" height="24" viewBox="0 0 22 24" fill="none" xmlns="http://www.w3.org/2000/svg">
<g clip-path="url(#clip0_2047_1499)">
<path d="M6.48438 0C7.31406 0 7.98438 0.670312 7.98438 1.5V3H13.9844V1.5C13.9844 0.670312 14.6547 0 15.4844 0C16.3141 0 16.9844 0.670312 16.9844 1.5V3H19.2344C20.4766 3 21.4844 4.00781 21.4844 5.25V7.5H0.484375V5.25C0.484375 4.00781 1.49219 3 2.73438 3H4.98438V1.5C4.98438 0.670312 5.65469 0 6.48438 0ZM0.484375 9H21.4844V21.75C21.4844 22.9922 20.4766 24 19.2344 24H2.73438C1.49219 24 0.484375 22.9922 0.484375 21.75V9ZM3.48438 12.75V14.25C3.48438 14.6625 3.82188 15 4.23438 15H5.73438C6.14687 15 6.48438 14.6625 6.48438 14.25V12.75C6.48438 12.3375 6.14687 12 5.73438 12H4.23438C3.82188 12 3.48438 12.3375 3.48438 12.75ZM9.48438 12.75V14.25C9.48438 14.6625 9.82187 15 10.2344 15H11.7344C12.1469 15 12.4844 14.6625 12.4844 14.25V12.75C12.4844 12.3375 12.1469 12 11.7344 12H10.2344C9.82187 12 9.48438 12.3375 9.48438 12.75ZM16.2344 12C15.8219 12 15.4844 12.3375 15.4844 12.75V14.25C15.4844 14.6625 15.8219 15 16.2344 15H17.7344C18.1469 15 18.4844 14.6625 18.4844 14.25V12.75C18.4844 12.3375 18.1469 12 17.7344 12H16.2344ZM3.48438 18.75V20.25C3.48438 20.6625 3.82188 21 4.23438 21H5.73438C6.14687 21 6.48438 20.6625 6.48438 20.25V18.75C6.48438 18.3375 6.14687 18 5.73438 18H4.23438C3.82188 18 3.48438 18.3375 3.48438 18.75ZM10.2344 18C9.82187 18 9.48438 18.3375 9.48438 18.75V20.25C9.48438 20.6625 9.82187 21 10.2344 21H11.7344C12.1469 21 12.4844 20.6625 12.4844 20.25V18.75C12.4844 18.3375 12.1469 18 11.7344 18H10.2344ZM15.4844 18.75V20.25C15.4844 20.6625 15.8219 21 16.2344 21H17.7344C18.1469 21 18.4844 20.6625 18.4844 20.25V18.75C18.4844 18.3375 18.1469 18 17.7344 18H16.2344C15.8219 18 15.4844 18.3375 15.4844 18.75Z" fill="#D1D5DB"/>
</g>
<defs>
<clipPath id="clip0_2047_1499">
<path d="M0.484375 0H21.4844V24H0.484375V0Z" fill="white"/>
</clipPath>
</defs>
</svg>
