<svg width="20" height="18" viewBox="0 0 20 18" fill="none" xmlns="http://www.w3.org/2000/svg">
<path d="M1.85938 10.2344L8.91797 16.8242C9.21094 17.0977 9.59766 17.25 10 17.25C10.4023 17.25 10.7891 17.0977 11.082 16.8242L18.1406 10.2344C19.3281 9.1289 20 7.57812 20 5.95703V5.73046C20 3 18.0273 0.671871 15.3359 0.222652C13.5547 -0.0742232 11.7422 0.507808 10.4688 1.78125L10 2.25L9.53125 1.78125C8.25781 0.507808 6.44531 -0.0742232 4.66406 0.222652C1.97266 0.671871 0 3 0 5.73046V5.95703C0 7.57812 0.671875 9.1289 1.85938 10.2344Z" fill="white"/>
</svg>
