<svg width="14" height="19" viewBox="0 0 14 19" fill="none" xmlns="http://www.w3.org/2000/svg">
<g clip-path="url(#clip0_2047_1551)">
<path d="M1.9375 0.25C1.00586 0.25 0.25 1.00586 0.25 1.9375V16.5625C0.25 17.4941 1.00586 18.25 1.9375 18.25H5.3125V15.4375C5.3125 14.5059 6.06836 13.75 7 13.75C7.93164 13.75 8.6875 14.5059 8.6875 15.4375V18.25H12.0625C12.9941 18.25 13.75 17.4941 13.75 16.5625V1.9375C13.75 1.00586 12.9941 0.25 12.0625 0.25H1.9375ZM2.5 8.6875C2.5 8.37813 2.75312 8.125 3.0625 8.125H4.1875C4.49687 8.125 4.75 8.37813 4.75 8.6875V9.8125C4.75 10.1219 4.49687 10.375 4.1875 10.375H3.0625C2.75312 10.375 2.5 10.1219 2.5 9.8125V8.6875ZM6.4375 8.125H7.5625C7.87187 8.125 8.125 8.37813 8.125 8.6875V9.8125C8.125 10.1219 7.87187 10.375 7.5625 10.375H6.4375C6.12813 10.375 5.875 10.1219 5.875 9.8125V8.6875C5.875 8.37813 6.12813 8.125 6.4375 8.125ZM9.25 8.6875C9.25 8.37813 9.50313 8.125 9.8125 8.125H10.9375C11.2469 8.125 11.5 8.37813 11.5 8.6875V9.8125C11.5 10.1219 11.2469 10.375 10.9375 10.375H9.8125C9.50313 10.375 9.25 10.1219 9.25 9.8125V8.6875ZM3.0625 3.625H4.1875C4.49687 3.625 4.75 3.87812 4.75 4.1875V5.3125C4.75 5.62187 4.49687 5.875 4.1875 5.875H3.0625C2.75312 5.875 2.5 5.62187 2.5 5.3125V4.1875C2.5 3.87812 2.75312 3.625 3.0625 3.625ZM5.875 4.1875C5.875 3.87812 6.12813 3.625 6.4375 3.625H7.5625C7.87187 3.625 8.125 3.87812 8.125 4.1875V5.3125C8.125 5.62187 7.87187 5.875 7.5625 5.875H6.4375C6.12813 5.875 5.875 5.62187 5.875 5.3125V4.1875ZM9.8125 3.625H10.9375C11.2469 3.625 11.5 3.87812 11.5 4.1875V5.3125C11.5 5.62187 11.2469 5.875 10.9375 5.875H9.8125C9.50313 5.875 9.25 5.62187 9.25 5.3125V4.1875C9.25 3.87812 9.50313 3.625 9.8125 3.625Z" fill="white"/>
</g>
<defs>
<clipPath id="clip0_2047_1551">
<path d="M0.25 0.25H13.75V18.25H0.25V0.25Z" fill="white"/>
</clipPath>
</defs>
</svg>
