<svg width="20" height="21" viewBox="0 0 20 21" fill="none" xmlns="http://www.w3.org/2000/svg">
<path d="M20 20.5H0V0.5H20V20.5Z" stroke="#E5E7EB"/>
<path d="M1.85938 12.2344L8.91797 18.8242C9.21094 19.0977 9.59766 19.25 10 19.25C10.4023 19.25 10.7891 19.0977 11.082 18.8242L18.1406 12.2344C19.3281 11.1289 20 9.57812 20 7.95703V7.73046C20 5 18.0273 2.67187 15.3359 2.22265C13.5547 1.92578 11.7422 2.50781 10.4688 3.78125L10 4.25L9.53125 3.78125C8.25781 2.50781 6.44531 1.92578 4.66406 2.22265C1.97266 2.67187 0 5 0 7.73046V7.95703C0 9.57812 0.671875 11.1289 1.85938 12.2344Z" fill="white"/>
</svg>
