<svg width="19" height="16" viewBox="0 0 19 16" fill="none" xmlns="http://www.w3.org/2000/svg">
<g clip-path="url(#clip0_2047_2106)">
<path d="M18.0875 7.98438C18.0875 8.54688 17.6187 8.9875 17.0875 8.9875H16.0875L16.1094 13.9937C16.1094 14.0781 16.1031 14.1625 16.0938 14.2469V14.75C16.0938 15.4406 15.5344 16 14.8438 16H14.3438C14.3094 16 14.275 16 14.2406 15.9969C14.1969 16 14.1531 16 14.1094 16H13.0938H12.3438C11.6531 16 11.0938 15.4406 11.0938 14.75V14V12C11.0938 11.4469 10.6469 11 10.0938 11H8.09375C7.54063 11 7.09375 11.4469 7.09375 12V14V14.75C7.09375 15.4406 6.53438 16 5.84375 16H5.09375H4.09688C4.05 16 4.00312 15.9969 3.95625 15.9937C3.91875 15.9969 3.88125 16 3.84375 16H3.34375C2.65313 16 2.09375 15.4406 2.09375 14.75V11.25C2.09375 11.2219 2.09375 11.1906 2.09687 11.1625V8.9875H1.09375C0.53125 8.9875 0.09375 8.55 0.09375 7.98438C0.09375 7.70312 0.1875 7.45312 0.40625 7.23438L8.41875 0.25C8.6375 0.03125 8.8875 0 9.10625 0C9.325 0 9.575 0.0625 9.7625 0.21875L17.7437 7.23438C17.9937 7.45312 18.1187 7.70312 18.0875 7.98438Z" fill="#1E40AF"/>
</g>
<defs>
<clipPath id="clip0_2047_2106">
<path d="M0.09375 0H18.0938V16H0.09375V0Z" fill="white"/>
</clipPath>
</defs>
</svg>
