<svg width="25" height="24" viewBox="0 0 25 24" fill="none" xmlns="http://www.w3.org/2000/svg">
<g clip-path="url(#clip0_2047_1496)">
<path d="M12.6565 1.5C13.3221 1.5 13.9362 1.85156 14.2737 2.42812L24.3987 19.6781C24.7408 20.2594 24.7408 20.9766 24.408 21.5578C24.0752 22.1391 23.4518 22.5 22.7815 22.5H2.53147C1.86116 22.5 1.23772 22.1391 0.90491 21.5578C0.572098 20.9766 0.576785 20.2547 0.914285 19.6781L11.0393 2.42812C11.3768 1.85156 11.9908 1.5 12.6565 1.5ZM12.6565 7.5C12.033 7.5 11.5315 8.00156 11.5315 8.625V13.875C11.5315 14.4984 12.033 15 12.6565 15C13.2799 15 13.7815 14.4984 13.7815 13.875V8.625C13.7815 8.00156 13.2799 7.5 12.6565 7.5ZM14.1565 18C14.1565 17.6022 13.9984 17.2206 13.7171 16.9393C13.4358 16.658 13.0543 16.5 12.6565 16.5C12.2586 16.5 11.8771 16.658 11.5958 16.9393C11.3145 17.2206 11.1565 17.6022 11.1565 18C11.1565 18.3978 11.3145 18.7794 11.5958 19.0607C11.8771 19.342 12.2586 19.5 12.6565 19.5C13.0543 19.5 13.4358 19.342 13.7171 19.0607C13.9984 18.7794 14.1565 18.3978 14.1565 18Z" fill="white"/>
</g>
<defs>
<clipPath id="clip0_2047_1496">
<path d="M0.65625 0H24.6562V24H0.65625V0Z" fill="white"/>
</clipPath>
</defs>
</svg>
