<svg width="14" height="15" viewBox="0 0 14 15" fill="none" xmlns="http://www.w3.org/2000/svg">
<g clip-path="url(#clip0_2047_1838)">
<path d="M9.43359 1.81914L12.9281 5.35469C14.3609 6.80391 14.3609 9.13359 12.9281 10.5828L9.86562 13.6809C9.61133 13.9379 9.1957 13.9406 8.93867 13.6863C8.68164 13.432 8.67891 13.0164 8.9332 12.7594L11.993 9.66133C12.9199 8.72344 12.9199 7.2168 11.993 6.27891L8.50117 2.74336C8.24687 2.48633 8.24961 2.0707 8.50664 1.81641C8.76367 1.56211 9.1793 1.56484 9.43359 1.82188V1.81914ZM0 7.02539V2.9375C0 2.21289 0.587891 1.625 1.3125 1.625H5.40039C5.86523 1.625 6.31094 1.8082 6.63906 2.13633L11.2328 6.73008C11.9164 7.41367 11.9164 8.52109 11.2328 9.20469L7.58242 12.8551C6.89883 13.5387 5.79141 13.5387 5.10781 12.8551L0.514062 8.26133C0.183203 7.9332 0 7.49023 0 7.02539ZM3.9375 4.6875C3.9375 4.45544 3.84531 4.23288 3.68122 4.06878C3.51712 3.90469 3.29456 3.8125 3.0625 3.8125C2.83044 3.8125 2.60788 3.90469 2.44378 4.06878C2.27969 4.23288 2.1875 4.45544 2.1875 4.6875C2.1875 4.91956 2.27969 5.14212 2.44378 5.30622C2.60788 5.47031 2.83044 5.5625 3.0625 5.5625C3.29456 5.5625 3.51712 5.47031 3.68122 5.30622C3.84531 5.14212 3.9375 4.91956 3.9375 4.6875Z" fill="#1E40AF"/>
</g>
<defs>
<clipPath id="clip0_2047_1838">
<path d="M0 0.75H14V14.75H0V0.75Z" fill="white"/>
</clipPath>
</defs>
</svg>
