<svg width="14" height="19" viewBox="0 0 14 19" fill="none" xmlns="http://www.w3.org/2000/svg">
<g clip-path="url(#clip0_2047_1794)">
<path d="M6.75 0.25C5.28047 0.25 4.02891 1.18867 3.56836 2.5H2.25C1.00898 2.5 0 3.50898 0 4.75V16C0 17.241 1.00898 18.25 2.25 18.25H11.25C12.491 18.25 13.5 17.241 13.5 16V4.75C13.5 3.50898 12.491 2.5 11.25 2.5H9.93164C9.47109 1.18867 8.21953 0.25 6.75 0.25ZM6.75 2.5C7.04837 2.5 7.33452 2.61853 7.5455 2.8295C7.75647 3.04048 7.875 3.32663 7.875 3.625C7.875 3.92337 7.75647 4.20952 7.5455 4.4205C7.33452 4.63147 7.04837 4.75 6.75 4.75C6.45163 4.75 6.16548 4.63147 5.9545 4.4205C5.74353 4.20952 5.625 3.92337 5.625 3.625C5.625 3.32663 5.74353 3.04048 5.9545 2.8295C6.16548 2.61853 6.45163 2.5 6.75 2.5ZM2.53125 9.8125C2.53125 9.58872 2.62014 9.37411 2.77838 9.21588C2.93661 9.05764 3.15122 8.96875 3.375 8.96875C3.59878 8.96875 3.81339 9.05764 3.97162 9.21588C4.12986 9.37411 4.21875 9.58872 4.21875 9.8125C4.21875 10.0363 4.12986 10.2509 3.97162 10.4091C3.81339 10.5674 3.59878 10.6562 3.375 10.6562C3.15122 10.6562 2.93661 10.5674 2.77838 10.4091C2.62014 10.2509 2.53125 10.0363 2.53125 9.8125ZM6.1875 9.25H10.6875C10.9969 9.25 11.25 9.50313 11.25 9.8125C11.25 10.1219 10.9969 10.375 10.6875 10.375H6.1875C5.87813 10.375 5.625 10.1219 5.625 9.8125C5.625 9.50313 5.87813 9.25 6.1875 9.25ZM2.53125 13.1875C2.53125 12.9637 2.62014 12.7491 2.77838 12.5909C2.93661 12.4326 3.15122 12.3438 3.375 12.3438C3.59878 12.3438 3.81339 12.4326 3.97162 12.5909C4.12986 12.7491 4.21875 12.9637 4.21875 13.1875C4.21875 13.4113 4.12986 13.6259 3.97162 13.7841C3.81339 13.9424 3.59878 14.0312 3.375 14.0312C3.15122 14.0312 2.93661 13.9424 2.77838 13.7841C2.62014 13.6259 2.53125 13.4113 2.53125 13.1875ZM5.625 13.1875C5.625 12.8781 5.87813 12.625 6.1875 12.625H10.6875C10.9969 12.625 11.25 12.8781 11.25 13.1875C11.25 13.4969 10.9969 13.75 10.6875 13.75H6.1875C5.87813 13.75 5.625 13.4969 5.625 13.1875Z" fill="#1E40AF"/>
</g>
<defs>
<clipPath id="clip0_2047_1794">
<path d="M0 0.25H13.5V18.25H0V0.25Z" fill="white"/>
</clipPath>
</defs>
</svg>
