<svg width="15" height="16" viewBox="0 0 15 16" fill="none" xmlns="http://www.w3.org/2000/svg">
<g clip-path="url(#clip0_2047_2101)">
<path d="M8.4375 2.5C8.4375 1.94687 7.99062 1.5 7.4375 1.5C6.88438 1.5 6.4375 1.94687 6.4375 2.5V7H1.9375C1.38437 7 0.9375 7.44688 0.9375 8C0.9375 8.55312 1.38437 9 1.9375 9H6.4375V13.5C6.4375 14.0531 6.88438 14.5 7.4375 14.5C7.99062 14.5 8.4375 14.0531 8.4375 13.5V9H12.9375C13.4906 9 13.9375 8.55312 13.9375 8C13.9375 7.44688 13.4906 7 12.9375 7H8.4375V2.5Z" fill="white"/>
</g>
<defs>
<clipPath id="clip0_2047_2101">
<path d="M0.4375 0H14.4375V16H0.4375V0Z" fill="white"/>
</clipPath>
</defs>
</svg>
