<svg width="18" height="16" viewBox="0 0 18 16" fill="none" xmlns="http://www.w3.org/2000/svg">
<path d="M8 1H5.6625C4.81562 1 4.05937 1.53437 3.77813 2.33125L0.096875 12.725C0.034375 12.9062 0 13.1 0 13.2937C0 14.2344 0.765625 15 1.70625 15H8V13C8 12.4469 8.44687 12 9 12C9.55313 12 10 12.4469 10 13V15H16.2938C17.2375 15 18 14.2344 18 13.2937C18 13.1 17.9656 12.9062 17.9031 12.725L14.2219 2.33125C13.9375 1.53437 13.1844 1 12.3375 1H10V3C10 3.55312 9.55313 4 9 4C8.44687 4 8 3.55312 8 3V1ZM10 7V9C10 9.55313 9.55313 10 9 10C8.44687 10 8 9.55313 8 9V7C8 6.44688 8.44687 6 9 6C9.55313 6 10 6.44688 10 7Z" fill="#1E40AF"/>
</svg>
