<svg width="19" height="24" viewBox="0 0 19 24" fill="none" xmlns="http://www.w3.org/2000/svg">
<g clip-path="url(#clip0_2047_1502)">
<path d="M9.32812 0C7.36875 0 5.7 1.25156 5.08594 3H3.32812C1.67344 3 0.328125 4.34531 0.328125 6V21C0.328125 22.6547 1.67344 24 3.32812 24H15.3281C16.9828 24 18.3281 22.6547 18.3281 21V6C18.3281 4.34531 16.9828 3 15.3281 3H13.5703C12.9563 1.25156 11.2875 0 9.32812 0ZM9.32812 3C9.72595 3 10.1075 3.15804 10.3888 3.43934C10.6701 3.72064 10.8281 4.10218 10.8281 4.5C10.8281 4.89782 10.6701 5.27936 10.3888 5.56066C10.1075 5.84196 9.72595 6 9.32812 6C8.9303 6 8.54877 5.84196 8.26747 5.56066C7.98616 5.27936 7.82812 4.89782 7.82812 4.5C7.82812 4.10218 7.98616 3.72064 8.26747 3.43934C8.54877 3.15804 8.9303 3 9.32812 3ZM14.625 12.7969L8.625 18.7969C8.18437 19.2375 7.47188 19.2375 7.03594 18.7969L4.03125 15.7969C3.59063 15.3562 3.59063 14.6438 4.03125 14.2078C4.47188 13.7719 5.18438 13.7672 5.62031 14.2078L7.82344 16.4109L13.0312 11.2031C13.4719 10.7625 14.1844 10.7625 14.6203 11.2031C15.0562 11.6438 15.0609 12.3562 14.6203 12.7922L14.625 12.7969Z" fill="#D1D5DB"/>
</g>
<defs>
<clipPath id="clip0_2047_1502">
<path d="M0.328125 0H18.3281V24H0.328125V0Z" fill="white"/>
</clipPath>
</defs>
</svg>
