<svg width="17" height="16" viewBox="0 0 17 16" fill="none" xmlns="http://www.w3.org/2000/svg">
<g clip-path="url(#clip0_2047_1828)">
<path d="M15.5811 0.174997C15.8967 0.393747 16.0623 0.771872 16.003 1.15L14.003 14.15C13.9561 14.4531 13.7717 14.7187 13.503 14.8687C13.2342 15.0187 12.9123 15.0375 12.628 14.9187L8.89046 13.3656L6.74984 15.6812C6.47171 15.9844 6.03421 16.0844 5.64984 15.9344C5.26546 15.7844 5.01546 15.4125 5.01546 15V12.3875C5.01546 12.2625 5.06234 12.1437 5.14671 12.0531L10.3842 6.3375C10.5655 6.14062 10.5592 5.8375 10.3717 5.65C10.1842 5.4625 9.88109 5.45 9.68421 5.62812L3.32796 11.275L0.568587 9.89375C0.237337 9.72812 0.0248372 9.39687 0.0154622 9.02812C0.0060872 8.65937 0.199837 8.31562 0.518587 8.13125L14.5186 0.131247C14.853 -0.0593776 15.2655 -0.0406276 15.5811 0.174997Z" fill="white"/>
</g>
<defs>
<clipPath id="clip0_2047_1828">
<path d="M0.015625 0H16.0156V16H0.015625V0Z" fill="white"/>
</clipPath>
</defs>
</svg>
